<mxfile host="Electron" agent="Mozilla/5.0 (Windows NT 10.0; Win64; x64) AppleWebKit/537.36 (KHTML, like Gecko) draw.io/27.0.9 Chrome/134.0.6998.205 Electron/35.4.0 Safari/537.36" version="27.0.9">
  <diagram name="第 1 页" id="BrN7zR5hEsNbHf6IiLUM">
    <mxGraphModel dx="3235" dy="2855" grid="1" gridSize="10" guides="1" tooltips="1" connect="1" arrows="1" fold="1" page="1" pageScale="1" pageWidth="1169" pageHeight="1654" math="0" shadow="0">
      <root>
        <mxCell id="0" />
        <mxCell id="1" parent="0" />
        <mxCell id="46PLyfhY26RBwBr-Dz2r-99" value="" style="endArrow=none;html=1;rounded=0;dashed=1;strokeWidth=2;" parent="1" edge="1">
          <mxGeometry width="50" height="50" relative="1" as="geometry">
            <mxPoint x="-250" y="30" as="sourcePoint" />
            <mxPoint x="160" y="30" as="targetPoint" />
          </mxGeometry>
        </mxCell>
        <mxCell id="46PLyfhY26RBwBr-Dz2r-31" value="" style="rounded=0;whiteSpace=wrap;html=1;fillColor=#f5f5f5;fontColor=#333333;strokeColor=#666666;" parent="1" vertex="1">
          <mxGeometry x="920" y="-210" width="400" height="80" as="geometry" />
        </mxCell>
        <mxCell id="46PLyfhY26RBwBr-Dz2r-8" value="&lt;font style=&quot;&quot;&gt;&lt;span style=&quot;font-size: 18px;&quot;&gt;struct&amp;nbsp;work_struct&lt;/span&gt;&lt;br&gt;&lt;div style=&quot;text-align: left;&quot;&gt;&lt;span style=&quot;font-size: 14px; font-weight: 400;&quot;&gt;工作队列机制中的基本单元，用在进程上下文中异步执行延迟工作，支持睡眠和复杂操作&lt;/span&gt;&lt;/div&gt;&lt;/font&gt;" style="swimlane;fontStyle=1;align=center;verticalAlign=top;childLayout=stackLayout;horizontal=1;startSize=50;horizontalStack=0;resizeParent=1;resizeParentMax=0;resizeLast=0;collapsible=1;marginBottom=0;whiteSpace=wrap;html=1;fontSize=16;strokeColor=#6c8ebf;fillColor=#dae8fc;" parent="1" vertex="1">
          <mxGeometry x="820" y="150" width="570" height="214" as="geometry">
            <mxRectangle x="20" y="90" width="400" height="60" as="alternateBounds" />
          </mxGeometry>
        </mxCell>
        <mxCell id="46PLyfhY26RBwBr-Dz2r-9" value="atomic_long_t&amp;nbsp; &amp;nbsp; &amp;nbsp; &amp;nbsp; &amp;nbsp; &amp;nbsp;&lt;span style=&quot;white-space: pre;&quot;&gt;&#x9;&lt;/span&gt;&lt;b&gt;data&lt;/b&gt;;&amp;nbsp; &amp;nbsp; &amp;nbsp; &amp;nbsp; &amp;nbsp; &amp;nbsp;&lt;span style=&quot;white-space: pre;&quot;&gt;&#x9;&lt;/span&gt;// 工作项数据字段" style="text;strokeColor=none;fillColor=#f5f5f5;align=left;verticalAlign=top;spacingLeft=4;spacingRight=4;overflow=hidden;rotatable=1;points=[[0,0.5],[1,0.5]];portConstraint=eastwest;whiteSpace=wrap;html=1;fontSize=16;movable=1;resizable=1;deletable=1;editable=1;locked=0;connectable=1;fontColor=#333333;" parent="46PLyfhY26RBwBr-Dz2r-8" vertex="1">
          <mxGeometry y="50" width="570" height="26" as="geometry" />
        </mxCell>
        <mxCell id="46PLyfhY26RBwBr-Dz2r-10" value="struct list_head&amp;nbsp; &amp;nbsp; &amp;nbsp; &amp;nbsp; &lt;span style=&quot;white-space: pre;&quot;&gt;&#x9;&lt;/span&gt;&lt;b&gt;entry&lt;/b&gt;;&amp;nbsp; &amp;nbsp; &amp;nbsp; &amp;nbsp; &amp;nbsp; &lt;span style=&quot;white-space: pre;&quot;&gt;&#x9;&lt;/span&gt;// 链表节点" style="text;strokeColor=none;fillColor=none;align=left;verticalAlign=top;spacingLeft=4;spacingRight=4;overflow=hidden;rotatable=1;points=[[0,0.5],[1,0.5]];portConstraint=eastwest;whiteSpace=wrap;html=1;fontSize=16;movable=1;resizable=1;deletable=1;editable=1;locked=0;connectable=1;" parent="46PLyfhY26RBwBr-Dz2r-8" vertex="1">
          <mxGeometry y="76" width="570" height="26" as="geometry" />
        </mxCell>
        <mxCell id="46PLyfhY26RBwBr-Dz2r-11" value="work_func_t&amp;nbsp; &amp;nbsp; &amp;nbsp; &amp;nbsp; &amp;nbsp; &amp;nbsp; &amp;nbsp;&lt;span style=&quot;white-space: pre;&quot;&gt;&#x9;&lt;/span&gt;&lt;b&gt;func&lt;/b&gt;;&amp;nbsp; &amp;nbsp; &amp;nbsp; &amp;nbsp; &amp;nbsp; &amp;nbsp;&lt;span style=&quot;white-space: pre;&quot;&gt;&#x9;&lt;/span&gt;// 工作处理函数指针" style="text;strokeColor=none;fillColor=none;align=left;verticalAlign=top;spacingLeft=4;spacingRight=4;overflow=hidden;rotatable=1;points=[[0,0.5],[1,0.5]];portConstraint=eastwest;whiteSpace=wrap;html=1;fontSize=16;movable=1;resizable=1;deletable=1;editable=1;locked=0;connectable=1;" parent="46PLyfhY26RBwBr-Dz2r-8" vertex="1">
          <mxGeometry y="102" width="570" height="26" as="geometry" />
        </mxCell>
        <mxCell id="46PLyfhY26RBwBr-Dz2r-12" value="struct lockdep_map&amp;nbsp; &amp;nbsp; &amp;nbsp; &lt;b&gt;lockdep_map&lt;/b&gt;;&amp;nbsp; &amp;nbsp;// 锁依赖检查（CONFIG_LOCKDEP）" style="text;strokeColor=none;fillColor=none;align=left;verticalAlign=top;spacingLeft=4;spacingRight=4;overflow=hidden;rotatable=1;points=[[0,0.5],[1,0.5]];portConstraint=eastwest;whiteSpace=wrap;html=1;fontSize=16;movable=1;resizable=1;deletable=1;editable=1;locked=0;connectable=1;" parent="46PLyfhY26RBwBr-Dz2r-8" vertex="1">
          <mxGeometry y="128" width="570" height="26" as="geometry" />
        </mxCell>
        <mxCell id="46PLyfhY26RBwBr-Dz2r-13" value="" style="line;strokeWidth=1;align=left;verticalAlign=middle;spacingTop=-1;spacingLeft=3;spacingRight=3;rotatable=0;labelPosition=right;points=[];portConstraint=eastwest;fontSize=16;fillColor=#dae8fc;strokeColor=#6c8ebf;" parent="46PLyfhY26RBwBr-Dz2r-8" vertex="1">
          <mxGeometry y="154" width="570" height="8" as="geometry" />
        </mxCell>
        <mxCell id="46PLyfhY26RBwBr-Dz2r-14" value="无回调函数，有func函数指针" style="text;strokeColor=none;fillColor=none;align=left;verticalAlign=top;spacingLeft=4;spacingRight=4;overflow=hidden;rotatable=1;points=[[0,0.5],[1,0.5]];portConstraint=eastwest;whiteSpace=wrap;html=1;fontSize=16;movable=1;resizable=1;deletable=1;editable=1;locked=0;connectable=1;" parent="46PLyfhY26RBwBr-Dz2r-8" vertex="1">
          <mxGeometry y="162" width="570" height="26" as="geometry" />
        </mxCell>
        <mxCell id="46PLyfhY26RBwBr-Dz2r-15" value="func定义：&lt;b&gt;typedef void (*work_func_t)(struct work_struct *work);&lt;/b&gt;" style="text;strokeColor=none;fillColor=none;align=left;verticalAlign=top;spacingLeft=4;spacingRight=4;overflow=hidden;rotatable=1;points=[[0,0.5],[1,0.5]];portConstraint=eastwest;whiteSpace=wrap;html=1;fontSize=16;movable=1;resizable=1;deletable=1;editable=1;locked=0;connectable=1;" parent="46PLyfhY26RBwBr-Dz2r-8" vertex="1">
          <mxGeometry y="188" width="570" height="26" as="geometry" />
        </mxCell>
        <mxCell id="46PLyfhY26RBwBr-Dz2r-16" value="&lt;font style=&quot;&quot;&gt;&lt;span style=&quot;font-size: 18px;&quot;&gt;struct&amp;nbsp;workqueue_struct&lt;/span&gt;&lt;br&gt;&lt;div style=&quot;&quot;&gt;&lt;span style=&quot;font-size: 14px; font-weight: 400;&quot;&gt;工作队列机制核心管理结构，负责&lt;/span&gt;&lt;span style=&quot;font-size: 14px;&quot;&gt;组织和调度工作项的执行&lt;br&gt;&lt;/span&gt;&lt;span style=&quot;font-size: 14px; font-weight: 400;&quot;&gt;管理工作者线程池和队列属性&lt;/span&gt;&lt;/div&gt;&lt;/font&gt;" style="swimlane;fontStyle=1;align=center;verticalAlign=top;childLayout=stackLayout;horizontal=1;startSize=70;horizontalStack=0;resizeParent=1;resizeParentMax=0;resizeLast=0;collapsible=1;marginBottom=0;whiteSpace=wrap;html=1;fontSize=16;strokeColor=#9673a6;fillColor=#e1d5e7;" parent="1" vertex="1">
          <mxGeometry x="-240" y="190" width="530" height="338" as="geometry">
            <mxRectangle x="20" y="90" width="400" height="60" as="alternateBounds" />
          </mxGeometry>
        </mxCell>
        <mxCell id="46PLyfhY26RBwBr-Dz2r-17" value="struct list_head&amp;nbsp; &amp;nbsp; &amp;nbsp; &amp;nbsp; &amp;nbsp; &lt;span style=&quot;white-space: pre;&quot;&gt;&#x9;&lt;span style=&quot;white-space: pre;&quot;&gt;&#x9;&lt;/span&gt;&lt;/span&gt;&lt;b&gt;pwqs&lt;/b&gt;;&amp;nbsp; &amp;nbsp; &amp;nbsp; &amp;nbsp; &amp;nbsp; &amp;nbsp; &amp;nbsp; &amp;nbsp; &amp;nbsp;&lt;span style=&quot;white-space: pre;&quot;&gt;&#x9;&lt;/span&gt;// 池化工作队列链表头" style="text;strokeColor=none;fillColor=none;align=left;verticalAlign=top;spacingLeft=4;spacingRight=4;overflow=hidden;rotatable=1;points=[[0,0.5],[1,0.5]];portConstraint=eastwest;whiteSpace=wrap;html=1;fontSize=16;movable=1;resizable=1;deletable=1;editable=1;locked=0;connectable=1;" parent="46PLyfhY26RBwBr-Dz2r-16" vertex="1">
          <mxGeometry y="70" width="530" height="26" as="geometry" />
        </mxCell>
        <mxCell id="46PLyfhY26RBwBr-Dz2r-18" value="struct list_head&amp;nbsp; &amp;nbsp; &amp;nbsp; &amp;nbsp;&amp;nbsp;&lt;span style=&quot;white-space: pre;&quot;&gt;&#x9;&lt;/span&gt;&lt;span style=&quot;white-space: pre;&quot;&gt;&#x9;&lt;/span&gt;&lt;b&gt;list&lt;/b&gt;;&amp;nbsp; &amp;nbsp; &amp;nbsp; &amp;nbsp; &amp;nbsp; &amp;nbsp; &amp;nbsp; &amp;nbsp;// 全局工作队列链表节点" style="text;strokeColor=none;fillColor=none;align=left;verticalAlign=top;spacingLeft=4;spacingRight=4;overflow=hidden;rotatable=1;points=[[0,0.5],[1,0.5]];portConstraint=eastwest;whiteSpace=wrap;html=1;fontSize=16;movable=1;resizable=1;deletable=1;editable=1;locked=0;connectable=1;" parent="46PLyfhY26RBwBr-Dz2r-16" vertex="1">
          <mxGeometry y="96" width="530" height="26" as="geometry" />
        </mxCell>
        <mxCell id="46PLyfhY26RBwBr-Dz2r-19" value="struct list_head&amp;nbsp; &amp;nbsp; &amp;nbsp; &amp;nbsp; &lt;span style=&quot;white-space: pre;&quot;&gt;&#x9;&lt;/span&gt;&lt;span style=&quot;white-space: pre;&quot;&gt;&#x9;&lt;/span&gt;&lt;b&gt;maydays&lt;/b&gt;;&amp;nbsp; &amp;nbsp; &amp;nbsp; &amp;nbsp; &amp;nbsp; &amp;nbsp; // 紧急救援链表头" style="text;strokeColor=none;fillColor=none;align=left;verticalAlign=top;spacingLeft=4;spacingRight=4;overflow=hidden;rotatable=1;points=[[0,0.5],[1,0.5]];portConstraint=eastwest;whiteSpace=wrap;html=1;fontSize=16;movable=1;resizable=1;deletable=1;editable=1;locked=0;connectable=1;" parent="46PLyfhY26RBwBr-Dz2r-16" vertex="1">
          <mxGeometry y="122" width="530" height="26" as="geometry" />
        </mxCell>
        <mxCell id="46PLyfhY26RBwBr-Dz2r-20" value="struct worker&amp;nbsp; &amp;nbsp; &amp;nbsp; &amp;nbsp; &amp;nbsp; &amp;nbsp;&lt;span style=&quot;white-space: pre;&quot;&gt;&#x9;&lt;/span&gt;&lt;span style=&quot;white-space: pre;&quot;&gt;&#x9;&lt;/span&gt;*&lt;b&gt;rescuer&lt;/b&gt;;&amp;nbsp; &amp;nbsp; &amp;nbsp; &amp;nbsp; &amp;nbsp; &amp;nbsp;// 救援工作线程" style="text;strokeColor=none;fillColor=#f8cecc;align=left;verticalAlign=top;spacingLeft=4;spacingRight=4;overflow=hidden;rotatable=1;points=[[0,0.5],[1,0.5]];portConstraint=eastwest;whiteSpace=wrap;html=1;fontSize=16;movable=1;resizable=1;deletable=1;editable=1;locked=0;connectable=1;" parent="46PLyfhY26RBwBr-Dz2r-16" vertex="1">
          <mxGeometry y="148" width="530" height="26" as="geometry" />
        </mxCell>
        <mxCell id="46PLyfhY26RBwBr-Dz2r-89" value="struct workqueue_attrs&amp;nbsp; &lt;span style=&quot;white-space: pre;&quot;&gt;&#x9;&lt;/span&gt;&lt;span style=&quot;white-space: pre;&quot;&gt;&#x9;&lt;/span&gt;*&lt;b&gt;unbound_attrs&lt;/b&gt;;&amp;nbsp; &amp;nbsp; &amp;nbsp;// 无绑定属性配置" style="text;strokeColor=none;fillColor=none;align=left;verticalAlign=top;spacingLeft=4;spacingRight=4;overflow=hidden;rotatable=1;points=[[0,0.5],[1,0.5]];portConstraint=eastwest;whiteSpace=wrap;html=1;fontSize=16;movable=1;resizable=1;deletable=1;editable=1;locked=0;connectable=1;" parent="46PLyfhY26RBwBr-Dz2r-16" vertex="1">
          <mxGeometry y="174" width="530" height="26" as="geometry" />
        </mxCell>
        <mxCell id="46PLyfhY26RBwBr-Dz2r-92" value="struct pool_workqueue&amp;nbsp; &amp;nbsp;&lt;span style=&quot;white-space: pre;&quot;&gt;&#x9;&lt;/span&gt;&lt;span style=&quot;white-space: pre;&quot;&gt;&#x9;&lt;/span&gt;*&lt;b&gt;dfl_pwq&lt;/b&gt;;&amp;nbsp; &amp;nbsp; &amp;nbsp; &amp;nbsp; &amp;nbsp; &amp;nbsp;// 默认池化工作队列" style="text;strokeColor=none;fillColor=#fff2cc;align=left;verticalAlign=top;spacingLeft=4;spacingRight=4;overflow=hidden;rotatable=1;points=[[0,0.5],[1,0.5]];portConstraint=eastwest;whiteSpace=wrap;html=1;fontSize=16;movable=1;resizable=1;deletable=1;editable=1;locked=0;connectable=1;" parent="46PLyfhY26RBwBr-Dz2r-16" vertex="1">
          <mxGeometry y="200" width="530" height="26" as="geometry" />
        </mxCell>
        <mxCell id="46PLyfhY26RBwBr-Dz2r-91" value="char&amp;nbsp; &amp;nbsp; &amp;nbsp; &amp;nbsp; &amp;nbsp; &amp;nbsp; &amp;nbsp; &amp;nbsp; &amp;nbsp; &amp;nbsp; &lt;span style=&quot;white-space: pre;&quot;&gt;&#x9;&lt;/span&gt;&lt;span style=&quot;white-space: pre;&quot;&gt;&#x9;&lt;/span&gt;&lt;b&gt;name&lt;/b&gt;[WQ_NAME_LEN];&amp;nbsp; // 工作队列名称" style="text;strokeColor=none;fillColor=none;align=left;verticalAlign=top;spacingLeft=4;spacingRight=4;overflow=hidden;rotatable=1;points=[[0,0.5],[1,0.5]];portConstraint=eastwest;whiteSpace=wrap;html=1;fontSize=16;movable=1;resizable=1;deletable=1;editable=1;locked=0;connectable=1;" parent="46PLyfhY26RBwBr-Dz2r-16" vertex="1">
          <mxGeometry y="226" width="530" height="26" as="geometry" />
        </mxCell>
        <mxCell id="46PLyfhY26RBwBr-Dz2r-90" value="unsigned int&amp;nbsp; &amp;nbsp; &amp;nbsp; &amp;nbsp; &amp;nbsp; &amp;nbsp; &lt;span style=&quot;white-space: pre;&quot;&gt;&#x9;&lt;/span&gt;&lt;span style=&quot;white-space: pre;&quot;&gt;&#x9;&lt;/span&gt;&lt;span style=&quot;white-space: pre;&quot;&gt;&#x9;&lt;/span&gt;&lt;b&gt;flags&lt;/b&gt;;&amp;nbsp; &amp;nbsp; &amp;nbsp; &amp;nbsp; &amp;nbsp; &amp;nbsp; &amp;nbsp; // 工作队列标志位" style="text;strokeColor=none;fillColor=none;align=left;verticalAlign=top;spacingLeft=4;spacingRight=4;overflow=hidden;rotatable=1;points=[[0,0.5],[1,0.5]];portConstraint=eastwest;whiteSpace=wrap;html=1;fontSize=16;movable=1;resizable=1;deletable=1;editable=1;locked=0;connectable=1;" parent="46PLyfhY26RBwBr-Dz2r-16" vertex="1">
          <mxGeometry y="252" width="530" height="26" as="geometry" />
        </mxCell>
        <mxCell id="46PLyfhY26RBwBr-Dz2r-93" value="struct pool_workqueue __percpu *&lt;b&gt;cpu_pwqs&lt;/b&gt;;&amp;nbsp; &amp;nbsp;// Per-CPU池化工作队列" style="text;strokeColor=none;fillColor=#fff2cc;align=left;verticalAlign=top;spacingLeft=4;spacingRight=4;overflow=hidden;rotatable=1;points=[[0,0.5],[1,0.5]];portConstraint=eastwest;whiteSpace=wrap;html=1;fontSize=16;movable=1;resizable=1;deletable=1;editable=1;locked=0;connectable=1;" parent="46PLyfhY26RBwBr-Dz2r-16" vertex="1">
          <mxGeometry y="278" width="530" height="26" as="geometry" />
        </mxCell>
        <mxCell id="46PLyfhY26RBwBr-Dz2r-22" value="" style="line;strokeWidth=1;align=left;verticalAlign=middle;spacingTop=-1;spacingLeft=3;spacingRight=3;rotatable=0;labelPosition=right;points=[];portConstraint=eastwest;fontSize=16;fillColor=#dae8fc;strokeColor=#6c8ebf;" parent="46PLyfhY26RBwBr-Dz2r-16" vertex="1">
          <mxGeometry y="304" width="530" height="8" as="geometry" />
        </mxCell>
        <mxCell id="46PLyfhY26RBwBr-Dz2r-23" value="无回调函数" style="text;strokeColor=none;fillColor=none;align=left;verticalAlign=top;spacingLeft=4;spacingRight=4;overflow=hidden;rotatable=1;points=[[0,0.5],[1,0.5]];portConstraint=eastwest;whiteSpace=wrap;html=1;fontSize=16;movable=1;resizable=1;deletable=1;editable=1;locked=0;connectable=1;" parent="46PLyfhY26RBwBr-Dz2r-16" vertex="1">
          <mxGeometry y="312" width="530" height="26" as="geometry" />
        </mxCell>
        <mxCell id="46PLyfhY26RBwBr-Dz2r-38" style="edgeStyle=orthogonalEdgeStyle;rounded=0;orthogonalLoop=1;jettySize=auto;html=1;entryX=0.5;entryY=0;entryDx=0;entryDy=0;curved=1;dashed=1;fillColor=#f5f5f5;strokeColor=#666666;strokeWidth=2;" parent="1" source="46PLyfhY26RBwBr-Dz2r-24" target="46PLyfhY26RBwBr-Dz2r-33" edge="1">
          <mxGeometry relative="1" as="geometry" />
        </mxCell>
        <mxCell id="46PLyfhY26RBwBr-Dz2r-46" value="&lt;font style=&quot;font-size: 14px;&quot;&gt;WORK_STRUCT_PWQ&lt;/font&gt;" style="edgeLabel;html=1;align=center;verticalAlign=middle;resizable=0;points=[];" parent="46PLyfhY26RBwBr-Dz2r-38" vertex="1" connectable="0">
          <mxGeometry x="0.1818" y="3" relative="1" as="geometry">
            <mxPoint x="-15" as="offset" />
          </mxGeometry>
        </mxCell>
        <mxCell id="46PLyfhY26RBwBr-Dz2r-39" style="edgeStyle=orthogonalEdgeStyle;rounded=0;orthogonalLoop=1;jettySize=auto;html=1;entryX=0.5;entryY=0;entryDx=0;entryDy=0;curved=1;exitX=0.5;exitY=1;exitDx=0;exitDy=0;dashed=1;fillColor=#f5f5f5;strokeColor=#666666;strokeWidth=2;" parent="1" source="46PLyfhY26RBwBr-Dz2r-24" target="46PLyfhY26RBwBr-Dz2r-36" edge="1">
          <mxGeometry relative="1" as="geometry" />
        </mxCell>
        <mxCell id="46PLyfhY26RBwBr-Dz2r-49" value="&lt;span style=&quot;font-size: 14px;&quot;&gt;~WORK_STRUCT_PWQ&lt;/span&gt;" style="edgeLabel;html=1;align=center;verticalAlign=middle;resizable=0;points=[];" parent="46PLyfhY26RBwBr-Dz2r-39" vertex="1" connectable="0">
          <mxGeometry x="0.2889" y="1" relative="1" as="geometry">
            <mxPoint x="25" y="1" as="offset" />
          </mxGeometry>
        </mxCell>
        <mxCell id="46PLyfhY26RBwBr-Dz2r-24" value="&lt;font style=&quot;font-size: 16px;&quot;&gt;31~8&lt;/font&gt;" style="rounded=0;whiteSpace=wrap;html=1;" parent="1" vertex="1">
          <mxGeometry x="930" y="-180" width="180" height="40" as="geometry" />
        </mxCell>
        <mxCell id="46PLyfhY26RBwBr-Dz2r-26" value="&lt;font style=&quot;font-size: 16px;&quot;&gt;7~4&lt;/font&gt;" style="rounded=0;whiteSpace=wrap;html=1;" parent="1" vertex="1">
          <mxGeometry x="1110" y="-180" width="100" height="40" as="geometry" />
        </mxCell>
        <mxCell id="46PLyfhY26RBwBr-Dz2r-52" style="edgeStyle=orthogonalEdgeStyle;rounded=0;orthogonalLoop=1;jettySize=auto;html=1;entryX=0.5;entryY=0;entryDx=0;entryDy=0;dashed=1;" parent="1" source="46PLyfhY26RBwBr-Dz2r-27" target="46PLyfhY26RBwBr-Dz2r-51" edge="1">
          <mxGeometry relative="1" as="geometry" />
        </mxCell>
        <mxCell id="46PLyfhY26RBwBr-Dz2r-27" value="&lt;font style=&quot;font-size: 16px;&quot;&gt;3~0&lt;/font&gt;" style="rounded=0;whiteSpace=wrap;html=1;" parent="1" vertex="1">
          <mxGeometry x="1210" y="-180" width="80" height="40" as="geometry" />
        </mxCell>
        <mxCell id="46PLyfhY26RBwBr-Dz2r-28" value="&lt;font style=&quot;font-size: 16px;&quot;&gt;address/pool_id&lt;/font&gt;" style="text;html=1;align=center;verticalAlign=middle;whiteSpace=wrap;rounded=0;" parent="1" vertex="1">
          <mxGeometry x="950" y="-210" width="140" height="30" as="geometry" />
        </mxCell>
        <mxCell id="46PLyfhY26RBwBr-Dz2r-29" value="&lt;font style=&quot;font-size: 16px;&quot;&gt;color&lt;/font&gt;" style="text;html=1;align=center;verticalAlign=middle;whiteSpace=wrap;rounded=0;" parent="1" vertex="1">
          <mxGeometry x="1135" y="-210" width="50" height="30" as="geometry" />
        </mxCell>
        <mxCell id="46PLyfhY26RBwBr-Dz2r-30" value="&lt;font style=&quot;font-size: 16px;&quot;&gt;flags&lt;/font&gt;" style="text;html=1;align=center;verticalAlign=middle;whiteSpace=wrap;rounded=0;" parent="1" vertex="1">
          <mxGeometry x="1225" y="-210" width="50" height="30" as="geometry" />
        </mxCell>
        <mxCell id="46PLyfhY26RBwBr-Dz2r-40" style="edgeStyle=orthogonalEdgeStyle;rounded=0;orthogonalLoop=1;jettySize=auto;html=1;entryX=0.5;entryY=0;entryDx=0;entryDy=0;curved=1;dashed=1;fillColor=#f5f5f5;strokeColor=#666666;strokeWidth=2;" parent="1" source="46PLyfhY26RBwBr-Dz2r-33" target="46PLyfhY26RBwBr-Dz2r-34" edge="1">
          <mxGeometry relative="1" as="geometry" />
        </mxCell>
        <mxCell id="46PLyfhY26RBwBr-Dz2r-33" value="&lt;font style=&quot;font-size: 16px;&quot;&gt;pool_workqueue指针&lt;/font&gt;" style="rounded=0;whiteSpace=wrap;html=1;" parent="1" vertex="1">
          <mxGeometry x="880" y="-80" width="180" height="40" as="geometry" />
        </mxCell>
        <mxCell id="46PLyfhY26RBwBr-Dz2r-34" value="&lt;font style=&quot;font-size: 16px;&quot;&gt;get_work_pool&lt;/font&gt;" style="rounded=0;whiteSpace=wrap;html=1;" parent="1" vertex="1">
          <mxGeometry x="880" y="-10" width="180" height="40" as="geometry" />
        </mxCell>
        <mxCell id="46PLyfhY26RBwBr-Dz2r-42" style="edgeStyle=orthogonalEdgeStyle;rounded=0;orthogonalLoop=1;jettySize=auto;html=1;entryX=0.5;entryY=1;entryDx=0;entryDy=0;curved=1;dashed=1;fillColor=#f5f5f5;strokeColor=#666666;strokeWidth=2;" parent="1" source="46PLyfhY26RBwBr-Dz2r-35" target="46PLyfhY26RBwBr-Dz2r-34" edge="1">
          <mxGeometry relative="1" as="geometry" />
        </mxCell>
        <mxCell id="46PLyfhY26RBwBr-Dz2r-43" style="edgeStyle=orthogonalEdgeStyle;rounded=0;orthogonalLoop=1;jettySize=auto;html=1;entryX=0.5;entryY=1;entryDx=0;entryDy=0;curved=1;dashed=1;fillColor=#f5f5f5;strokeColor=#666666;strokeWidth=2;" parent="1" source="46PLyfhY26RBwBr-Dz2r-35" target="46PLyfhY26RBwBr-Dz2r-37" edge="1">
          <mxGeometry relative="1" as="geometry" />
        </mxCell>
        <mxCell id="46PLyfhY26RBwBr-Dz2r-35" value="&lt;font style=&quot;font-size: 16px;&quot;&gt;worker&lt;/font&gt;" style="rounded=0;whiteSpace=wrap;html=1;" parent="1" vertex="1">
          <mxGeometry x="1030" y="60" width="95" height="40" as="geometry" />
        </mxCell>
        <mxCell id="46PLyfhY26RBwBr-Dz2r-44" style="edgeStyle=orthogonalEdgeStyle;rounded=0;orthogonalLoop=1;jettySize=auto;html=1;entryX=0.5;entryY=0;entryDx=0;entryDy=0;curved=1;dashed=1;fillColor=#f5f5f5;strokeColor=#666666;strokeWidth=2;" parent="1" source="46PLyfhY26RBwBr-Dz2r-36" target="46PLyfhY26RBwBr-Dz2r-37" edge="1">
          <mxGeometry relative="1" as="geometry" />
        </mxCell>
        <mxCell id="46PLyfhY26RBwBr-Dz2r-36" value="&lt;font style=&quot;font-size: 16px;&quot;&gt;pool ID号&lt;/font&gt;" style="rounded=0;whiteSpace=wrap;html=1;" parent="1" vertex="1">
          <mxGeometry x="1095" y="-80" width="180" height="40" as="geometry" />
        </mxCell>
        <mxCell id="46PLyfhY26RBwBr-Dz2r-37" value="&lt;font style=&quot;font-size: 16px;&quot;&gt;id_find(worker_pool_idr)&lt;/font&gt;" style="rounded=0;whiteSpace=wrap;html=1;" parent="1" vertex="1">
          <mxGeometry x="1095" y="-10" width="180" height="40" as="geometry" />
        </mxCell>
        <mxCell id="46PLyfhY26RBwBr-Dz2r-51" value="&lt;font style=&quot;font-size: 16px;&quot;&gt;flags决定高bit用途&lt;/font&gt;" style="rounded=0;whiteSpace=wrap;html=1;" parent="1" vertex="1">
          <mxGeometry x="1290" y="-90" width="150" height="40" as="geometry" />
        </mxCell>
        <mxCell id="46PLyfhY26RBwBr-Dz2r-54" value="&lt;font style=&quot;&quot;&gt;&lt;span style=&quot;font-size: 18px;&quot;&gt;struct&amp;nbsp;worker_pool&lt;/span&gt;&lt;br&gt;&lt;div style=&quot;text-align: left;&quot;&gt;&lt;span style=&quot;font-size: 14px; font-weight: 400;&quot;&gt;工作线程池结构体，CMWQ机制中的线程池抽象&lt;br&gt;管理&lt;/span&gt;&lt;span style=&quot;font-size: 14px;&quot;&gt;一组工作者线程&lt;/span&gt;&lt;span style=&quot;font-size: 14px; font-weight: 400;&quot;&gt;和&lt;/span&gt;&lt;span style=&quot;font-size: 14px;&quot;&gt;待处理的工作项队列&lt;/span&gt;&lt;/div&gt;&lt;/font&gt;" style="swimlane;fontStyle=1;align=center;verticalAlign=top;childLayout=stackLayout;horizontal=1;startSize=70;horizontalStack=0;resizeParent=1;resizeParentMax=0;resizeLast=0;collapsible=1;marginBottom=0;whiteSpace=wrap;html=1;fontSize=16;strokeColor=#82b366;fillColor=#d5e8d4;" parent="1" vertex="1">
          <mxGeometry x="900" y="420" width="470" height="416" as="geometry">
            <mxRectangle x="20" y="90" width="400" height="60" as="alternateBounds" />
          </mxGeometry>
        </mxCell>
        <mxCell id="46PLyfhY26RBwBr-Dz2r-86" value="struct list_head&amp;nbsp; &amp;nbsp; &amp;nbsp; &amp;nbsp; &lt;span style=&quot;white-space: pre;&quot;&gt;&#x9;&lt;/span&gt;&lt;b&gt;worklist&lt;/b&gt;;&amp;nbsp; &amp;nbsp; &amp;nbsp; &amp;nbsp; &amp;nbsp; &amp;nbsp;// 待处理工作项链表头" style="text;strokeColor=none;fillColor=none;align=left;verticalAlign=top;spacingLeft=4;spacingRight=4;overflow=hidden;rotatable=1;points=[[0,0.5],[1,0.5]];portConstraint=eastwest;whiteSpace=wrap;html=1;fontSize=16;movable=1;resizable=1;deletable=1;editable=1;locked=0;connectable=1;" parent="46PLyfhY26RBwBr-Dz2r-54" vertex="1">
          <mxGeometry y="70" width="470" height="26" as="geometry" />
        </mxCell>
        <mxCell id="46PLyfhY26RBwBr-Dz2r-55" value="spinlock_t&amp;nbsp; &amp;nbsp; &amp;nbsp; &amp;nbsp; &amp;nbsp; &amp;nbsp; &amp;nbsp; &lt;span style=&quot;white-space: pre;&quot;&gt;&#x9;&lt;/span&gt;&lt;span style=&quot;white-space: pre;&quot;&gt;&#x9;&lt;/span&gt;&lt;b&gt;lock&lt;/b&gt;;&amp;nbsp; &amp;nbsp; &amp;nbsp; &amp;nbsp; &amp;nbsp; &amp;nbsp; &amp;nbsp; &amp;nbsp;// 线程池保护锁" style="text;strokeColor=none;fillColor=none;align=left;verticalAlign=top;spacingLeft=4;spacingRight=4;overflow=hidden;rotatable=1;points=[[0,0.5],[1,0.5]];portConstraint=eastwest;whiteSpace=wrap;html=1;fontSize=16;movable=1;resizable=1;deletable=1;editable=1;locked=0;connectable=1;" parent="46PLyfhY26RBwBr-Dz2r-54" vertex="1">
          <mxGeometry y="96" width="470" height="26" as="geometry" />
        </mxCell>
        <mxCell id="46PLyfhY26RBwBr-Dz2r-56" value="int&amp;nbsp; &amp;nbsp; &amp;nbsp; &amp;nbsp; &amp;nbsp; &amp;nbsp; &amp;nbsp; &amp;nbsp; &amp;nbsp; &amp;nbsp; &amp;nbsp;&lt;span style=&quot;white-space: pre;&quot;&gt;&#x9;&lt;/span&gt;&lt;span style=&quot;white-space: pre;&quot;&gt;&#x9;&lt;/span&gt;&lt;b&gt;cpu&lt;/b&gt;;&amp;nbsp; &amp;nbsp; &amp;nbsp; &amp;nbsp; &amp;nbsp; &amp;nbsp; &amp;nbsp; &amp;nbsp; // 绑定的CPU编号" style="text;strokeColor=none;fillColor=none;align=left;verticalAlign=top;spacingLeft=4;spacingRight=4;overflow=hidden;rotatable=1;points=[[0,0.5],[1,0.5]];portConstraint=eastwest;whiteSpace=wrap;html=1;fontSize=16;movable=1;resizable=1;deletable=1;editable=1;locked=0;connectable=1;" parent="46PLyfhY26RBwBr-Dz2r-54" vertex="1">
          <mxGeometry y="122" width="470" height="26" as="geometry" />
        </mxCell>
        <mxCell id="46PLyfhY26RBwBr-Dz2r-83" value="struct list_head&amp;nbsp; &amp;nbsp; &amp;nbsp; &amp;nbsp; &lt;span style=&quot;white-space: pre;&quot;&gt;&#x9;&lt;/span&gt;&lt;b&gt;idle_list&lt;/b&gt;;&amp;nbsp; &amp;nbsp; &amp;nbsp; &amp;nbsp; &amp;nbsp; // 空闲工作线程链表头" style="text;strokeColor=none;fillColor=none;align=left;verticalAlign=top;spacingLeft=4;spacingRight=4;overflow=hidden;rotatable=1;points=[[0,0.5],[1,0.5]];portConstraint=eastwest;whiteSpace=wrap;html=1;fontSize=16;movable=1;resizable=1;deletable=1;editable=1;locked=0;connectable=1;" parent="46PLyfhY26RBwBr-Dz2r-54" vertex="1">
          <mxGeometry y="148" width="470" height="26" as="geometry" />
        </mxCell>
        <mxCell id="46PLyfhY26RBwBr-Dz2r-57" value="int&amp;nbsp; &amp;nbsp; &amp;nbsp; &amp;nbsp; &amp;nbsp; &amp;nbsp; &amp;nbsp; &amp;nbsp; &amp;nbsp; &amp;nbsp; &amp;nbsp;&lt;span style=&quot;white-space: pre;&quot;&gt;&#x9;&lt;/span&gt;&lt;span style=&quot;white-space: pre;&quot;&gt;&#x9;&lt;/span&gt;&lt;b&gt;node&lt;/b&gt;;&amp;nbsp; &amp;nbsp; &amp;nbsp; &amp;nbsp; &amp;nbsp; &amp;nbsp; &amp;nbsp; &amp;nbsp;// NUMA节点ID" style="text;strokeColor=none;fillColor=none;align=left;verticalAlign=top;spacingLeft=4;spacingRight=4;overflow=hidden;rotatable=1;points=[[0,0.5],[1,0.5]];portConstraint=eastwest;whiteSpace=wrap;html=1;fontSize=16;movable=1;resizable=1;deletable=1;editable=1;locked=0;connectable=1;" parent="46PLyfhY26RBwBr-Dz2r-54" vertex="1">
          <mxGeometry y="174" width="470" height="26" as="geometry" />
        </mxCell>
        <mxCell id="46PLyfhY26RBwBr-Dz2r-58" value="int&amp;nbsp; &amp;nbsp; &amp;nbsp; &amp;nbsp; &amp;nbsp; &amp;nbsp; &amp;nbsp; &amp;nbsp; &amp;nbsp; &amp;nbsp; &amp;nbsp;&lt;span style=&quot;white-space: pre;&quot;&gt;&#x9;&lt;/span&gt;&lt;span style=&quot;white-space: pre;&quot;&gt;&#x9;&lt;/span&gt;&lt;b&gt;id&lt;/b&gt;;&amp;nbsp; &amp;nbsp; &amp;nbsp; &amp;nbsp; &amp;nbsp; &amp;nbsp; &amp;nbsp; &amp;nbsp; &amp;nbsp;// 线程池标识ID" style="text;strokeColor=none;fillColor=none;align=left;verticalAlign=top;spacingLeft=4;spacingRight=4;overflow=hidden;rotatable=1;points=[[0,0.5],[1,0.5]];portConstraint=eastwest;whiteSpace=wrap;html=1;fontSize=16;movable=1;resizable=1;deletable=1;editable=1;locked=0;connectable=1;" parent="46PLyfhY26RBwBr-Dz2r-54" vertex="1">
          <mxGeometry y="200" width="470" height="26" as="geometry" />
        </mxCell>
        <mxCell id="46PLyfhY26RBwBr-Dz2r-81" value="unsigned int&amp;nbsp; &amp;nbsp; &amp;nbsp; &amp;nbsp; &amp;nbsp; &amp;nbsp; &lt;span style=&quot;white-space: pre;&quot;&gt;&#x9;&lt;/span&gt;&lt;span style=&quot;white-space: pre;&quot;&gt;&#x9;&lt;/span&gt;&lt;b&gt;flags&lt;/b&gt;;&amp;nbsp; &amp;nbsp; &amp;nbsp; &amp;nbsp; &amp;nbsp; &amp;nbsp; &amp;nbsp; // 线程池标志位" style="text;strokeColor=none;fillColor=none;align=left;verticalAlign=top;spacingLeft=4;spacingRight=4;overflow=hidden;rotatable=1;points=[[0,0.5],[1,0.5]];portConstraint=eastwest;whiteSpace=wrap;html=1;fontSize=16;movable=1;resizable=1;deletable=1;editable=1;locked=0;connectable=1;" parent="46PLyfhY26RBwBr-Dz2r-54" vertex="1">
          <mxGeometry y="226" width="470" height="26" as="geometry" />
        </mxCell>
        <mxCell id="46PLyfhY26RBwBr-Dz2r-85" value="int&amp;nbsp; &amp;nbsp; &amp;nbsp; &amp;nbsp; &amp;nbsp; &amp;nbsp; &amp;nbsp; &amp;nbsp; &amp;nbsp; &amp;nbsp; &amp;nbsp;&lt;span style=&quot;white-space: pre;&quot;&gt;&#x9;&lt;/span&gt;&lt;span style=&quot;white-space: pre;&quot;&gt;&#x9;&lt;/span&gt;&lt;b&gt;nr_workers&lt;/b&gt;;&amp;nbsp; &amp;nbsp; &amp;nbsp; &amp;nbsp; &amp;nbsp;// 工作线程总数" style="text;strokeColor=none;fillColor=none;align=left;verticalAlign=top;spacingLeft=4;spacingRight=4;overflow=hidden;rotatable=1;points=[[0,0.5],[1,0.5]];portConstraint=eastwest;whiteSpace=wrap;html=1;fontSize=16;movable=1;resizable=1;deletable=1;editable=1;locked=0;connectable=1;" parent="46PLyfhY26RBwBr-Dz2r-54" vertex="1">
          <mxGeometry y="252" width="470" height="26" as="geometry" />
        </mxCell>
        <mxCell id="46PLyfhY26RBwBr-Dz2r-84" value="int&amp;nbsp; &amp;nbsp; &amp;nbsp; &amp;nbsp; &amp;nbsp; &amp;nbsp; &amp;nbsp; &amp;nbsp; &amp;nbsp; &amp;nbsp; &amp;nbsp;&lt;span style=&quot;white-space: pre;&quot;&gt;&#x9;&lt;/span&gt;&lt;span style=&quot;white-space: pre;&quot;&gt;&#x9;&lt;/span&gt;&lt;b&gt;nr_idle&lt;/b&gt;;&amp;nbsp; &amp;nbsp; &amp;nbsp; &amp;nbsp; &amp;nbsp; &amp;nbsp; // 空闲工作线程数" style="text;strokeColor=none;fillColor=none;align=left;verticalAlign=top;spacingLeft=4;spacingRight=4;overflow=hidden;rotatable=1;points=[[0,0.5],[1,0.5]];portConstraint=eastwest;whiteSpace=wrap;html=1;fontSize=16;movable=1;resizable=1;deletable=1;editable=1;locked=0;connectable=1;" parent="46PLyfhY26RBwBr-Dz2r-54" vertex="1">
          <mxGeometry y="278" width="470" height="26" as="geometry" />
        </mxCell>
        <mxCell id="46PLyfhY26RBwBr-Dz2r-82" value="struct list_head&amp;nbsp; &amp;nbsp; &amp;nbsp; &amp;nbsp; &lt;span style=&quot;white-space: pre;&quot;&gt;&#x9;&lt;/span&gt;&lt;b&gt;workers&lt;/b&gt;;&amp;nbsp; &amp;nbsp; &amp;nbsp; &amp;nbsp; &amp;nbsp; &amp;nbsp; // 所有工作线程链表头" style="text;strokeColor=none;fillColor=none;align=left;verticalAlign=top;spacingLeft=4;spacingRight=4;overflow=hidden;rotatable=1;points=[[0,0.5],[1,0.5]];portConstraint=eastwest;whiteSpace=wrap;html=1;fontSize=16;movable=1;resizable=1;deletable=1;editable=1;locked=0;connectable=1;" parent="46PLyfhY26RBwBr-Dz2r-54" vertex="1">
          <mxGeometry y="304" width="470" height="26" as="geometry" />
        </mxCell>
        <mxCell id="46PLyfhY26RBwBr-Dz2r-59" value="struct workqueue_attrs&amp;nbsp; *&lt;b&gt;attrs&lt;/b&gt;;&amp;nbsp; &amp;nbsp; &amp;nbsp; &amp;nbsp; &amp;nbsp; &amp;nbsp; &amp;nbsp;// 工作队列属性" style="text;strokeColor=none;fillColor=none;align=left;verticalAlign=top;spacingLeft=4;spacingRight=4;overflow=hidden;rotatable=1;points=[[0,0.5],[1,0.5]];portConstraint=eastwest;whiteSpace=wrap;html=1;fontSize=16;movable=1;resizable=1;deletable=1;editable=1;locked=0;connectable=1;" parent="46PLyfhY26RBwBr-Dz2r-54" vertex="1">
          <mxGeometry y="330" width="470" height="26" as="geometry" />
        </mxCell>
        <mxCell id="46PLyfhY26RBwBr-Dz2r-87" value="atomic_t&amp;nbsp; &amp;nbsp; &amp;nbsp; &amp;nbsp; &amp;nbsp; &amp;nbsp; &amp;nbsp; &amp;nbsp; &lt;span style=&quot;white-space: pre;&quot;&gt;&#x9;&lt;/span&gt;&lt;span style=&quot;white-space: pre;&quot;&gt;&#x9;&lt;/span&gt;&lt;b&gt;nr_running&lt;/b&gt;;&amp;nbsp; &amp;nbsp; &amp;nbsp; &amp;nbsp; &amp;nbsp;// 正在运行的线程数" style="text;strokeColor=none;fillColor=none;align=left;verticalAlign=top;spacingLeft=4;spacingRight=4;overflow=hidden;rotatable=1;points=[[0,0.5],[1,0.5]];portConstraint=eastwest;whiteSpace=wrap;html=1;fontSize=16;movable=1;resizable=1;deletable=1;editable=1;locked=0;connectable=1;" parent="46PLyfhY26RBwBr-Dz2r-54" vertex="1">
          <mxGeometry y="356" width="470" height="26" as="geometry" />
        </mxCell>
        <mxCell id="46PLyfhY26RBwBr-Dz2r-60" value="" style="line;strokeWidth=1;align=left;verticalAlign=middle;spacingTop=-1;spacingLeft=3;spacingRight=3;rotatable=0;labelPosition=right;points=[];portConstraint=eastwest;fontSize=16;fillColor=#dae8fc;strokeColor=#6c8ebf;" parent="46PLyfhY26RBwBr-Dz2r-54" vertex="1">
          <mxGeometry y="382" width="470" height="8" as="geometry" />
        </mxCell>
        <mxCell id="46PLyfhY26RBwBr-Dz2r-61" value="无回调函数" style="text;strokeColor=none;fillColor=none;align=left;verticalAlign=top;spacingLeft=4;spacingRight=4;overflow=hidden;rotatable=1;points=[[0,0.5],[1,0.5]];portConstraint=eastwest;whiteSpace=wrap;html=1;fontSize=16;movable=1;resizable=1;deletable=1;editable=1;locked=0;connectable=1;" parent="46PLyfhY26RBwBr-Dz2r-54" vertex="1">
          <mxGeometry y="390" width="470" height="26" as="geometry" />
        </mxCell>
        <mxCell id="46PLyfhY26RBwBr-Dz2r-62" value="&lt;font style=&quot;&quot;&gt;&lt;span style=&quot;font-size: 18px;&quot;&gt;struct&amp;nbsp;pool_workqueue&lt;/span&gt;&lt;br&gt;&lt;div style=&quot;&quot;&gt;&lt;span style=&quot;font-size: 14px;&quot;&gt;&lt;span style=&quot;font-weight: 400;&quot;&gt;池化工作队列结构体，连接具体工作队列和工作线程池的桥梁&lt;/span&gt;&lt;br&gt;负责工作项的调度和流量控制&lt;/span&gt;&lt;/div&gt;&lt;/font&gt;" style="swimlane;fontStyle=1;align=center;verticalAlign=top;childLayout=stackLayout;horizontal=1;startSize=70;horizontalStack=0;resizeParent=1;resizeParentMax=0;resizeLast=0;collapsible=1;marginBottom=0;whiteSpace=wrap;html=1;fontSize=16;strokeColor=#d6b656;fillColor=#fff2cc;" parent="1" vertex="1">
          <mxGeometry x="220" y="560" width="570" height="286" as="geometry">
            <mxRectangle x="20" y="90" width="400" height="60" as="alternateBounds" />
          </mxGeometry>
        </mxCell>
        <mxCell id="46PLyfhY26RBwBr-Dz2r-63" value="struct worker_pool&amp;nbsp; &amp;nbsp; &amp;nbsp; &lt;span style=&quot;white-space: pre;&quot;&gt;&#x9;&lt;/span&gt;*&lt;b&gt;pool&lt;/b&gt;;&amp;nbsp; &amp;nbsp; &amp;nbsp; &amp;nbsp; &amp;nbsp; &amp;nbsp; &amp;nbsp; // 关联的工作线程池" style="text;strokeColor=none;fillColor=#d5e8d4;align=left;verticalAlign=top;spacingLeft=4;spacingRight=4;overflow=hidden;rotatable=1;points=[[0,0.5],[1,0.5]];portConstraint=eastwest;whiteSpace=wrap;html=1;fontSize=16;movable=1;resizable=1;deletable=1;editable=1;locked=0;connectable=1;" parent="46PLyfhY26RBwBr-Dz2r-62" vertex="1">
          <mxGeometry y="70" width="570" height="26" as="geometry" />
        </mxCell>
        <mxCell id="46PLyfhY26RBwBr-Dz2r-64" value="struct workqueue_struct *&lt;b&gt;wq&lt;/b&gt;;&amp;nbsp; &amp;nbsp; &amp;nbsp; &amp;nbsp; &amp;nbsp; &amp;nbsp; &amp;nbsp; &amp;nbsp; // 所属的工作队列" style="text;strokeColor=none;fillColor=#e1d5e7;align=left;verticalAlign=top;spacingLeft=4;spacingRight=4;overflow=hidden;rotatable=1;points=[[0,0.5],[1,0.5]];portConstraint=eastwest;whiteSpace=wrap;html=1;fontSize=16;movable=1;resizable=1;deletable=1;editable=1;locked=0;connectable=1;" parent="46PLyfhY26RBwBr-Dz2r-62" vertex="1">
          <mxGeometry y="96" width="570" height="26" as="geometry" />
        </mxCell>
        <mxCell id="46PLyfhY26RBwBr-Dz2r-65" value="int&amp;nbsp; &amp;nbsp; &amp;nbsp; &amp;nbsp; &amp;nbsp; &amp;nbsp; &amp;nbsp; &amp;nbsp; &amp;nbsp; &amp;nbsp; &amp;nbsp;&lt;span style=&quot;white-space: pre;&quot;&gt;&#x9;&lt;/span&gt;&lt;span style=&quot;white-space: pre;&quot;&gt;&#x9;&lt;/span&gt;&lt;b&gt;nr_active&lt;/b&gt;;&amp;nbsp; &amp;nbsp; &amp;nbsp; &amp;nbsp; &amp;nbsp; // 当前活跃工作项数" style="text;strokeColor=none;fillColor=none;align=left;verticalAlign=top;spacingLeft=4;spacingRight=4;overflow=hidden;rotatable=1;points=[[0,0.5],[1,0.5]];portConstraint=eastwest;whiteSpace=wrap;html=1;fontSize=16;movable=1;resizable=1;deletable=1;editable=1;locked=0;connectable=1;" parent="46PLyfhY26RBwBr-Dz2r-62" vertex="1">
          <mxGeometry y="122" width="570" height="26" as="geometry" />
        </mxCell>
        <mxCell id="46PLyfhY26RBwBr-Dz2r-66" value="int&amp;nbsp; &amp;nbsp; &amp;nbsp; &amp;nbsp; &amp;nbsp; &amp;nbsp; &amp;nbsp; &amp;nbsp; &amp;nbsp; &amp;nbsp; &amp;nbsp;&lt;span style=&quot;white-space: pre;&quot;&gt;&#x9;&lt;/span&gt;&lt;span style=&quot;white-space: pre;&quot;&gt;&#x9;&lt;/span&gt;&lt;b&gt;max_active&lt;/b&gt;;&amp;nbsp; &amp;nbsp; &amp;nbsp; &amp;nbsp; &amp;nbsp;// 最大活跃工作项数" style="text;strokeColor=none;fillColor=none;align=left;verticalAlign=top;spacingLeft=4;spacingRight=4;overflow=hidden;rotatable=1;points=[[0,0.5],[1,0.5]];portConstraint=eastwest;whiteSpace=wrap;html=1;fontSize=16;movable=1;resizable=1;deletable=1;editable=1;locked=0;connectable=1;" parent="46PLyfhY26RBwBr-Dz2r-62" vertex="1">
          <mxGeometry y="148" width="570" height="26" as="geometry" />
        </mxCell>
        <mxCell id="46PLyfhY26RBwBr-Dz2r-67" value="struct list_head&amp;nbsp; &amp;nbsp; &amp;nbsp; &amp;nbsp; &lt;span style=&quot;white-space: pre;&quot;&gt;&#x9;&lt;/span&gt;&lt;b&gt;delayed_works&lt;/b&gt;;&amp;nbsp; &amp;nbsp; &amp;nbsp; // 延迟工作项链表头" style="text;strokeColor=none;fillColor=none;align=left;verticalAlign=top;spacingLeft=4;spacingRight=4;overflow=hidden;rotatable=1;points=[[0,0.5],[1,0.5]];portConstraint=eastwest;whiteSpace=wrap;html=1;fontSize=16;movable=1;resizable=1;deletable=1;editable=1;locked=0;connectable=1;" parent="46PLyfhY26RBwBr-Dz2r-62" vertex="1">
          <mxGeometry y="174" width="570" height="26" as="geometry" />
        </mxCell>
        <mxCell id="46PLyfhY26RBwBr-Dz2r-88" value="struct rcu_head&amp;nbsp; &amp;nbsp; &amp;nbsp; &amp;nbsp; &amp;nbsp;&lt;span style=&quot;white-space: pre;&quot;&gt;&#x9;&lt;/span&gt;&lt;b&gt;rcu&lt;/b&gt;;&amp;nbsp; &amp;nbsp; &amp;nbsp; &amp;nbsp; &amp;nbsp; &amp;nbsp; &amp;nbsp; &amp;nbsp; // RCU回收节点" style="text;strokeColor=none;fillColor=none;align=left;verticalAlign=top;spacingLeft=4;spacingRight=4;overflow=hidden;rotatable=1;points=[[0,0.5],[1,0.5]];portConstraint=eastwest;whiteSpace=wrap;html=1;fontSize=16;movable=1;resizable=1;deletable=1;editable=1;locked=0;connectable=1;" parent="46PLyfhY26RBwBr-Dz2r-62" vertex="1">
          <mxGeometry y="200" width="570" height="26" as="geometry" />
        </mxCell>
        <mxCell id="46PLyfhY26RBwBr-Dz2r-116" value="struct list_head&amp;nbsp; &amp;nbsp; &amp;nbsp; &amp;nbsp; &amp;nbsp;&lt;span style=&quot;white-space: pre;&quot;&gt;&#x9;&lt;/span&gt;&lt;b&gt;pwqs_nodes&lt;/b&gt;;&amp;nbsp; &amp;nbsp; &amp;nbsp; &amp;nbsp; &amp;nbsp; &amp;nbsp; &amp;nbsp; &amp;nbsp; // 池化工作队列节点" style="text;strokeColor=none;fillColor=none;align=left;verticalAlign=top;spacingLeft=4;spacingRight=4;overflow=hidden;rotatable=1;points=[[0,0.5],[1,0.5]];portConstraint=eastwest;whiteSpace=wrap;html=1;fontSize=16;movable=1;resizable=1;deletable=1;editable=1;locked=0;connectable=1;" parent="46PLyfhY26RBwBr-Dz2r-62" vertex="1">
          <mxGeometry y="226" width="570" height="26" as="geometry" />
        </mxCell>
        <mxCell id="46PLyfhY26RBwBr-Dz2r-68" value="" style="line;strokeWidth=1;align=left;verticalAlign=middle;spacingTop=-1;spacingLeft=3;spacingRight=3;rotatable=0;labelPosition=right;points=[];portConstraint=eastwest;fontSize=16;fillColor=#dae8fc;strokeColor=#6c8ebf;" parent="46PLyfhY26RBwBr-Dz2r-62" vertex="1">
          <mxGeometry y="252" width="570" height="8" as="geometry" />
        </mxCell>
        <mxCell id="46PLyfhY26RBwBr-Dz2r-69" value="无回调函数" style="text;strokeColor=none;fillColor=none;align=left;verticalAlign=top;spacingLeft=4;spacingRight=4;overflow=hidden;rotatable=1;points=[[0,0.5],[1,0.5]];portConstraint=eastwest;whiteSpace=wrap;html=1;fontSize=16;movable=1;resizable=1;deletable=1;editable=1;locked=0;connectable=1;" parent="46PLyfhY26RBwBr-Dz2r-62" vertex="1">
          <mxGeometry y="260" width="570" height="26" as="geometry" />
        </mxCell>
        <mxCell id="46PLyfhY26RBwBr-Dz2r-70" value="&lt;font style=&quot;&quot;&gt;&lt;span style=&quot;font-size: 18px;&quot;&gt;struct&amp;nbsp;worker&lt;/span&gt;&lt;br&gt;&lt;div style=&quot;&quot;&gt;&lt;span style=&quot;font-size: 14px; font-weight: 400;&quot;&gt;工作者线程结构体，CMWQ机制中的工作执行单元，表示一个内核线程从工作线程池取出并执行工作项&lt;/span&gt;&lt;/div&gt;&lt;/font&gt;" style="swimlane;fontStyle=1;align=center;verticalAlign=top;childLayout=stackLayout;horizontal=1;startSize=70;horizontalStack=0;resizeParent=1;resizeParentMax=0;resizeLast=0;collapsible=1;marginBottom=0;whiteSpace=wrap;html=1;fontSize=16;strokeColor=#b85450;fillColor=#f8cecc;" parent="1" vertex="1">
          <mxGeometry x="960" y="870" width="550" height="312" as="geometry">
            <mxRectangle x="20" y="90" width="400" height="60" as="alternateBounds" />
          </mxGeometry>
        </mxCell>
        <mxCell id="46PLyfhY26RBwBr-Dz2r-71" value="struct work_struct&amp;nbsp; &amp;nbsp; &amp;nbsp; &lt;span style=&quot;white-space: pre;&quot;&gt;&#x9;&lt;/span&gt;*&lt;b&gt;current_work&lt;/b&gt;;&amp;nbsp; &amp;nbsp; &amp;nbsp; // 当前正在处理的工作项" style="text;strokeColor=none;fillColor=#dae8fc;align=left;verticalAlign=top;spacingLeft=4;spacingRight=4;overflow=hidden;rotatable=1;points=[[0,0.5],[1,0.5]];portConstraint=eastwest;whiteSpace=wrap;html=1;fontSize=16;movable=1;resizable=1;deletable=1;editable=1;locked=0;connectable=1;" parent="46PLyfhY26RBwBr-Dz2r-70" vertex="1">
          <mxGeometry y="70" width="550" height="26" as="geometry" />
        </mxCell>
        <mxCell id="46PLyfhY26RBwBr-Dz2r-72" value="work_func_t&amp;nbsp; &amp;nbsp; &amp;nbsp; &amp;nbsp; &amp;nbsp; &amp;nbsp; &amp;nbsp;&lt;span style=&quot;white-space: pre;&quot;&gt;&#x9;&lt;/span&gt;&lt;b&gt;current_func&lt;/b&gt;;&amp;nbsp; &amp;nbsp; &amp;nbsp; &amp;nbsp;// 当前执行的工作函数" style="text;strokeColor=none;fillColor=none;align=left;verticalAlign=top;spacingLeft=4;spacingRight=4;overflow=hidden;rotatable=1;points=[[0,0.5],[1,0.5]];portConstraint=eastwest;whiteSpace=wrap;html=1;fontSize=16;movable=1;resizable=1;deletable=1;editable=1;locked=0;connectable=1;" parent="46PLyfhY26RBwBr-Dz2r-70" vertex="1">
          <mxGeometry y="96" width="550" height="26" as="geometry" />
        </mxCell>
        <mxCell id="46PLyfhY26RBwBr-Dz2r-73" value="struct pool_workqueue&amp;nbsp; &amp;nbsp;*&lt;b&gt;current_pwq&lt;/b&gt;;&amp;nbsp; &amp;nbsp; &amp;nbsp; &amp;nbsp;// 当前工作所属的池化工作队列" style="text;strokeColor=none;fillColor=#fff2cc;align=left;verticalAlign=top;spacingLeft=4;spacingRight=4;overflow=hidden;rotatable=1;points=[[0,0.5],[1,0.5]];portConstraint=eastwest;whiteSpace=wrap;html=1;fontSize=16;movable=1;resizable=1;deletable=1;editable=1;locked=0;connectable=1;" parent="46PLyfhY26RBwBr-Dz2r-70" vertex="1">
          <mxGeometry y="122" width="550" height="26" as="geometry" />
        </mxCell>
        <mxCell id="46PLyfhY26RBwBr-Dz2r-74" value="struct list_head&amp;nbsp; &amp;nbsp; &amp;nbsp; &amp;nbsp; &lt;span style=&quot;white-space: pre;&quot;&gt;&#x9;&lt;/span&gt;&lt;b&gt;scheduled&lt;/b&gt;;&amp;nbsp; &amp;nbsp; &amp;nbsp; &amp;nbsp; &amp;nbsp; // 调度待执行的工作链表头" style="text;strokeColor=none;fillColor=none;align=left;verticalAlign=top;spacingLeft=4;spacingRight=4;overflow=hidden;rotatable=1;points=[[0,0.5],[1,0.5]];portConstraint=eastwest;whiteSpace=wrap;html=1;fontSize=16;movable=1;resizable=1;deletable=1;editable=1;locked=0;connectable=1;" parent="46PLyfhY26RBwBr-Dz2r-70" vertex="1">
          <mxGeometry y="148" width="550" height="26" as="geometry" />
        </mxCell>
        <mxCell id="46PLyfhY26RBwBr-Dz2r-75" value="struct task_struct&amp;nbsp; &amp;nbsp; &amp;nbsp; &lt;span style=&quot;white-space: pre;&quot;&gt;&#x9;&lt;/span&gt;*&lt;b&gt;task&lt;/b&gt;;&amp;nbsp; &amp;nbsp; &amp;nbsp; &amp;nbsp; &amp;nbsp; &amp;nbsp; &amp;nbsp; // 对应的内核线程结构" style="text;strokeColor=none;fillColor=none;align=left;verticalAlign=top;spacingLeft=4;spacingRight=4;overflow=hidden;rotatable=1;points=[[0,0.5],[1,0.5]];portConstraint=eastwest;whiteSpace=wrap;html=1;fontSize=16;movable=1;resizable=1;deletable=1;editable=1;locked=0;connectable=1;" parent="46PLyfhY26RBwBr-Dz2r-70" vertex="1">
          <mxGeometry y="174" width="550" height="26" as="geometry" />
        </mxCell>
        <mxCell id="46PLyfhY26RBwBr-Dz2r-78" value="struct worker_pool&amp;nbsp; &amp;nbsp; &amp;nbsp; &lt;span style=&quot;white-space: pre;&quot;&gt;&#x9;&lt;/span&gt;*&lt;b&gt;pool&lt;/b&gt;;&amp;nbsp; &amp;nbsp; &amp;nbsp; &amp;nbsp; &amp;nbsp; &amp;nbsp; &amp;nbsp; // 所属的工作线程池" style="text;strokeColor=none;fillColor=#d5e8d4;align=left;verticalAlign=top;spacingLeft=4;spacingRight=4;overflow=hidden;rotatable=1;points=[[0,0.5],[1,0.5]];portConstraint=eastwest;whiteSpace=wrap;html=1;fontSize=16;movable=1;resizable=1;deletable=1;editable=1;locked=0;connectable=1;" parent="46PLyfhY26RBwBr-Dz2r-70" vertex="1">
          <mxGeometry y="200" width="550" height="26" as="geometry" />
        </mxCell>
        <mxCell id="46PLyfhY26RBwBr-Dz2r-80" value="int&amp;nbsp; &amp;nbsp; &amp;nbsp; &amp;nbsp; &amp;nbsp; &amp;nbsp; &amp;nbsp; &amp;nbsp; &amp;nbsp; &amp;nbsp; &amp;nbsp;&lt;span style=&quot;white-space: pre;&quot;&gt;&#x9;&lt;/span&gt;&lt;span style=&quot;white-space: pre;&quot;&gt;&#x9;&lt;/span&gt;&lt;b&gt;id&lt;/b&gt;;&amp;nbsp; &amp;nbsp; &amp;nbsp; &amp;nbsp; &amp;nbsp; &amp;nbsp; &amp;nbsp; &amp;nbsp; &amp;nbsp;// 工作线程标识ID" style="text;strokeColor=none;fillColor=none;align=left;verticalAlign=top;spacingLeft=4;spacingRight=4;overflow=hidden;rotatable=1;points=[[0,0.5],[1,0.5]];portConstraint=eastwest;whiteSpace=wrap;html=1;fontSize=16;movable=1;resizable=1;deletable=1;editable=1;locked=0;connectable=1;" parent="46PLyfhY26RBwBr-Dz2r-70" vertex="1">
          <mxGeometry y="226" width="550" height="26" as="geometry" />
        </mxCell>
        <mxCell id="46PLyfhY26RBwBr-Dz2r-79" value="struct list_head&amp;nbsp; &amp;nbsp; &amp;nbsp; &amp;nbsp; &lt;span style=&quot;white-space: pre;&quot;&gt;&#x9;&lt;/span&gt;&lt;b&gt;node&lt;/b&gt;;&amp;nbsp; &amp;nbsp; &amp;nbsp; &amp;nbsp; &amp;nbsp; &amp;nbsp; &amp;nbsp; &amp;nbsp;// 在工作线程池中的链表节点" style="text;strokeColor=none;fillColor=none;align=left;verticalAlign=top;spacingLeft=4;spacingRight=4;overflow=hidden;rotatable=1;points=[[0,0.5],[1,0.5]];portConstraint=eastwest;whiteSpace=wrap;html=1;fontSize=16;movable=1;resizable=1;deletable=1;editable=1;locked=0;connectable=1;" parent="46PLyfhY26RBwBr-Dz2r-70" vertex="1">
          <mxGeometry y="252" width="550" height="26" as="geometry" />
        </mxCell>
        <mxCell id="46PLyfhY26RBwBr-Dz2r-76" value="" style="line;strokeWidth=1;align=left;verticalAlign=middle;spacingTop=-1;spacingLeft=3;spacingRight=3;rotatable=0;labelPosition=right;points=[];portConstraint=eastwest;fontSize=16;fillColor=#dae8fc;strokeColor=#6c8ebf;" parent="46PLyfhY26RBwBr-Dz2r-70" vertex="1">
          <mxGeometry y="278" width="550" height="8" as="geometry" />
        </mxCell>
        <mxCell id="46PLyfhY26RBwBr-Dz2r-77" value="无回调函数" style="text;strokeColor=none;fillColor=none;align=left;verticalAlign=top;spacingLeft=4;spacingRight=4;overflow=hidden;rotatable=1;points=[[0,0.5],[1,0.5]];portConstraint=eastwest;whiteSpace=wrap;html=1;fontSize=16;movable=1;resizable=1;deletable=1;editable=1;locked=0;connectable=1;" parent="46PLyfhY26RBwBr-Dz2r-70" vertex="1">
          <mxGeometry y="286" width="550" height="26" as="geometry" />
        </mxCell>
        <mxCell id="46PLyfhY26RBwBr-Dz2r-95" value="" style="ellipse;whiteSpace=wrap;html=1;aspect=fixed;fillColor=#e1d5e7;strokeColor=#9673a6;" parent="1" vertex="1">
          <mxGeometry x="-220" width="60" height="60" as="geometry" />
        </mxCell>
        <mxCell id="46PLyfhY26RBwBr-Dz2r-96" value="" style="ellipse;whiteSpace=wrap;html=1;aspect=fixed;fillColor=#e1d5e7;strokeColor=#9673a6;" parent="1" vertex="1">
          <mxGeometry x="-130" width="60" height="60" as="geometry" />
        </mxCell>
        <mxCell id="46PLyfhY26RBwBr-Dz2r-97" value="" style="ellipse;whiteSpace=wrap;html=1;aspect=fixed;fillColor=#e1d5e7;strokeColor=#9673a6;" parent="1" vertex="1">
          <mxGeometry x="-40" width="60" height="60" as="geometry" />
        </mxCell>
        <mxCell id="46PLyfhY26RBwBr-Dz2r-98" value="" style="ellipse;whiteSpace=wrap;html=1;aspect=fixed;fillColor=#e1d5e7;strokeColor=#9673a6;" parent="1" vertex="1">
          <mxGeometry x="50" width="60" height="60" as="geometry" />
        </mxCell>
        <mxCell id="46PLyfhY26RBwBr-Dz2r-100" value="&lt;font style=&quot;font-size: 16px; color: rgb(255, 0, 0);&quot;&gt;&lt;b&gt;workqueues链表&lt;/b&gt;&lt;/font&gt;" style="text;html=1;align=center;verticalAlign=middle;whiteSpace=wrap;rounded=0;" parent="1" vertex="1">
          <mxGeometry x="-140" y="-40" width="190" height="30" as="geometry" />
        </mxCell>
        <mxCell id="46PLyfhY26RBwBr-Dz2r-101" style="edgeStyle=orthogonalEdgeStyle;rounded=0;orthogonalLoop=1;jettySize=auto;html=1;entryX=0.5;entryY=1;entryDx=0;entryDy=0;dashed=1;curved=1;" parent="1" source="46PLyfhY26RBwBr-Dz2r-18" target="46PLyfhY26RBwBr-Dz2r-95" edge="1">
          <mxGeometry relative="1" as="geometry">
            <Array as="points">
              <mxPoint x="-260" y="299" />
              <mxPoint x="-260" y="160" />
              <mxPoint x="-250" y="160" />
              <mxPoint x="-250" y="60" />
            </Array>
          </mxGeometry>
        </mxCell>
        <mxCell id="46PLyfhY26RBwBr-Dz2r-103" value="" style="endArrow=none;html=1;rounded=0;dashed=1;strokeWidth=2;" parent="1" edge="1">
          <mxGeometry width="50" height="50" relative="1" as="geometry">
            <mxPoint x="220" y="90" as="sourcePoint" />
            <mxPoint x="630" y="90" as="targetPoint" />
          </mxGeometry>
        </mxCell>
        <mxCell id="46PLyfhY26RBwBr-Dz2r-104" value="" style="ellipse;whiteSpace=wrap;html=1;aspect=fixed;fillColor=#fff2cc;strokeColor=#d6b656;" parent="1" vertex="1">
          <mxGeometry x="250" y="60" width="60" height="60" as="geometry" />
        </mxCell>
        <mxCell id="46PLyfhY26RBwBr-Dz2r-105" value="" style="ellipse;whiteSpace=wrap;html=1;aspect=fixed;fillColor=#fff2cc;strokeColor=#d6b656;" parent="1" vertex="1">
          <mxGeometry x="340" y="60" width="60" height="60" as="geometry" />
        </mxCell>
        <mxCell id="46PLyfhY26RBwBr-Dz2r-106" value="" style="ellipse;whiteSpace=wrap;html=1;aspect=fixed;fillColor=#fff2cc;strokeColor=#d6b656;" parent="1" vertex="1">
          <mxGeometry x="430" y="60" width="60" height="60" as="geometry" />
        </mxCell>
        <mxCell id="46PLyfhY26RBwBr-Dz2r-107" value="" style="ellipse;whiteSpace=wrap;html=1;aspect=fixed;fillColor=#fff2cc;strokeColor=#d6b656;" parent="1" vertex="1">
          <mxGeometry x="520" y="60" width="60" height="60" as="geometry" />
        </mxCell>
        <mxCell id="46PLyfhY26RBwBr-Dz2r-108" value="&lt;font color=&quot;#ff0000&quot;&gt;&lt;span style=&quot;font-size: 16px;&quot;&gt;&lt;b&gt;池化工作队列链表 pool_workqueues&lt;/b&gt;&lt;/span&gt;&lt;/font&gt;" style="text;html=1;align=center;verticalAlign=middle;whiteSpace=wrap;rounded=0;" parent="1" vertex="1">
          <mxGeometry x="330" y="10" width="190" height="40" as="geometry" />
        </mxCell>
        <mxCell id="46PLyfhY26RBwBr-Dz2r-109" style="edgeStyle=orthogonalEdgeStyle;rounded=0;orthogonalLoop=1;jettySize=auto;html=1;entryX=0.5;entryY=1;entryDx=0;entryDy=0;curved=1;dashed=1;strokeWidth=1;" parent="1" source="46PLyfhY26RBwBr-Dz2r-17" target="46PLyfhY26RBwBr-Dz2r-104" edge="1">
          <mxGeometry relative="1" as="geometry">
            <Array as="points">
              <mxPoint x="340" y="273" />
              <mxPoint x="340" y="170" />
              <mxPoint x="280" y="170" />
            </Array>
          </mxGeometry>
        </mxCell>
        <mxCell id="46PLyfhY26RBwBr-Dz2r-110" style="edgeStyle=orthogonalEdgeStyle;rounded=0;orthogonalLoop=1;jettySize=auto;html=1;curved=1;fillColor=#fff2cc;strokeColor=#d6b656;strokeWidth=2;" parent="1" source="46PLyfhY26RBwBr-Dz2r-93" target="46PLyfhY26RBwBr-Dz2r-62" edge="1">
          <mxGeometry relative="1" as="geometry" />
        </mxCell>
        <mxCell id="46PLyfhY26RBwBr-Dz2r-113" value="&lt;font style=&quot;font-size: 16px;&quot;&gt;&lt;b&gt;Per-CPU&lt;/b&gt;&lt;/font&gt;" style="edgeLabel;html=1;align=center;verticalAlign=middle;resizable=0;points=[];" parent="46PLyfhY26RBwBr-Dz2r-110" vertex="1" connectable="0">
          <mxGeometry x="-0.4286" y="-5" relative="1" as="geometry">
            <mxPoint as="offset" />
          </mxGeometry>
        </mxCell>
        <mxCell id="46PLyfhY26RBwBr-Dz2r-111" style="edgeStyle=orthogonalEdgeStyle;rounded=0;orthogonalLoop=1;jettySize=auto;html=1;entryX=0.5;entryY=0;entryDx=0;entryDy=0;curved=1;fillColor=#fff2cc;strokeColor=#d6b656;strokeWidth=2;" parent="1" source="46PLyfhY26RBwBr-Dz2r-92" target="46PLyfhY26RBwBr-Dz2r-62" edge="1">
          <mxGeometry relative="1" as="geometry" />
        </mxCell>
        <mxCell id="46PLyfhY26RBwBr-Dz2r-112" value="&lt;b&gt;&lt;font style=&quot;font-size: 16px;&quot;&gt;默认池化工作队列&lt;/font&gt;&lt;/b&gt;" style="edgeLabel;html=1;align=center;verticalAlign=middle;resizable=0;points=[];" parent="46PLyfhY26RBwBr-Dz2r-111" vertex="1" connectable="0">
          <mxGeometry x="-0.3763" y="-18" relative="1" as="geometry">
            <mxPoint as="offset" />
          </mxGeometry>
        </mxCell>
        <mxCell id="46PLyfhY26RBwBr-Dz2r-114" style="edgeStyle=orthogonalEdgeStyle;rounded=0;orthogonalLoop=1;jettySize=auto;html=1;entryX=0.009;entryY=0.089;entryDx=0;entryDy=0;entryPerimeter=0;curved=1;fillColor=#d5e8d4;strokeColor=#82b366;strokeWidth=2;" parent="1" source="46PLyfhY26RBwBr-Dz2r-63" target="46PLyfhY26RBwBr-Dz2r-54" edge="1">
          <mxGeometry relative="1" as="geometry" />
        </mxCell>
        <mxCell id="46PLyfhY26RBwBr-Dz2r-117" style="edgeStyle=orthogonalEdgeStyle;rounded=0;orthogonalLoop=1;jettySize=auto;html=1;entryX=0.5;entryY=1;entryDx=0;entryDy=0;curved=1;dashed=1;" parent="1" source="46PLyfhY26RBwBr-Dz2r-116" target="46PLyfhY26RBwBr-Dz2r-107" edge="1">
          <mxGeometry relative="1" as="geometry" />
        </mxCell>
        <mxCell id="46PLyfhY26RBwBr-Dz2r-118" value="&lt;b&gt;&lt;font style=&quot;font-size: 16px;&quot;&gt;添加到链表中&lt;/font&gt;&lt;/b&gt;" style="edgeLabel;html=1;align=center;verticalAlign=middle;resizable=0;points=[];" parent="46PLyfhY26RBwBr-Dz2r-117" vertex="1" connectable="0">
          <mxGeometry x="0.1429" y="-22" relative="1" as="geometry">
            <mxPoint as="offset" />
          </mxGeometry>
        </mxCell>
        <mxCell id="46PLyfhY26RBwBr-Dz2r-119" value="" style="endArrow=none;html=1;rounded=0;dashed=1;strokeWidth=2;" parent="1" source="46PLyfhY26RBwBr-Dz2r-143" edge="1">
          <mxGeometry width="50" height="50" relative="1" as="geometry">
            <mxPoint x="1370" y="502.5" as="sourcePoint" />
            <mxPoint x="1910" y="503" as="targetPoint" />
          </mxGeometry>
        </mxCell>
        <mxCell id="46PLyfhY26RBwBr-Dz2r-120" value="" style="ellipse;whiteSpace=wrap;html=1;aspect=fixed;fillColor=#d5e8d4;strokeColor=#82b366;" parent="1" vertex="1">
          <mxGeometry x="1405" y="485.5" width="35" height="35" as="geometry" />
        </mxCell>
        <mxCell id="46PLyfhY26RBwBr-Dz2r-121" value="" style="ellipse;whiteSpace=wrap;html=1;aspect=fixed;fillColor=#d5e8d4;strokeColor=#82b366;" parent="1" vertex="1">
          <mxGeometry x="1495" y="485.5" width="35" height="35" as="geometry" />
        </mxCell>
        <mxCell id="46PLyfhY26RBwBr-Dz2r-122" value="" style="ellipse;whiteSpace=wrap;html=1;aspect=fixed;fillColor=#d5e8d4;strokeColor=#82b366;" parent="1" vertex="1">
          <mxGeometry x="1585" y="485.5" width="35" height="35" as="geometry" />
        </mxCell>
        <mxCell id="46PLyfhY26RBwBr-Dz2r-123" value="" style="ellipse;whiteSpace=wrap;html=1;aspect=fixed;fillColor=#d5e8d4;strokeColor=#82b366;" parent="1" vertex="1">
          <mxGeometry x="1675" y="485.5" width="35" height="35" as="geometry" />
        </mxCell>
        <mxCell id="46PLyfhY26RBwBr-Dz2r-125" style="edgeStyle=orthogonalEdgeStyle;rounded=0;orthogonalLoop=1;jettySize=auto;html=1;entryX=0;entryY=0.117;entryDx=0;entryDy=0;entryPerimeter=0;curved=1;fillColor=#d5e8d4;strokeColor=#82b366;strokeWidth=2;exitX=0;exitY=0.5;exitDx=0;exitDy=0;" parent="1" source="46PLyfhY26RBwBr-Dz2r-78" target="46PLyfhY26RBwBr-Dz2r-54" edge="1">
          <mxGeometry relative="1" as="geometry">
            <Array as="points">
              <mxPoint x="960" y="1103" />
              <mxPoint x="860" y="1103" />
              <mxPoint x="860" y="469" />
            </Array>
          </mxGeometry>
        </mxCell>
        <mxCell id="46PLyfhY26RBwBr-Dz2r-126" style="edgeStyle=orthogonalEdgeStyle;rounded=0;orthogonalLoop=1;jettySize=auto;html=1;entryX=0.999;entryY=0.099;entryDx=0;entryDy=0;entryPerimeter=0;curved=1;fillColor=#e1d5e7;strokeColor=#9673a6;strokeWidth=2;" parent="1" source="46PLyfhY26RBwBr-Dz2r-64" target="46PLyfhY26RBwBr-Dz2r-16" edge="1">
          <mxGeometry relative="1" as="geometry">
            <Array as="points">
              <mxPoint x="200" y="669" />
              <mxPoint x="200" y="540" />
              <mxPoint x="340" y="540" />
              <mxPoint x="340" y="223" />
            </Array>
          </mxGeometry>
        </mxCell>
        <mxCell id="46PLyfhY26RBwBr-Dz2r-127" style="edgeStyle=orthogonalEdgeStyle;rounded=0;orthogonalLoop=1;jettySize=auto;html=1;entryX=0.5;entryY=0;entryDx=0;entryDy=0;dashed=1;curved=1;fillColor=#d5e8d4;strokeColor=#82b366;" parent="1" source="46PLyfhY26RBwBr-Dz2r-10" target="46PLyfhY26RBwBr-Dz2r-120" edge="1">
          <mxGeometry relative="1" as="geometry" />
        </mxCell>
        <mxCell id="46PLyfhY26RBwBr-Dz2r-128" value="&lt;b&gt;&lt;font style=&quot;font-size: 16px;&quot;&gt;添加到worker_pool&lt;br&gt;对应的链表中&lt;/font&gt;&lt;/b&gt;" style="edgeLabel;html=1;align=center;verticalAlign=middle;resizable=0;points=[];" parent="46PLyfhY26RBwBr-Dz2r-127" vertex="1" connectable="0">
          <mxGeometry x="0.0754" y="-4" relative="1" as="geometry">
            <mxPoint x="4" y="33" as="offset" />
          </mxGeometry>
        </mxCell>
        <mxCell id="46PLyfhY26RBwBr-Dz2r-129" value="&lt;font color=&quot;#ff0000&quot;&gt;&lt;span style=&quot;font-size: 16px;&quot;&gt;&lt;b&gt;工作项链表&lt;/b&gt;&lt;/span&gt;&lt;/font&gt;" style="text;html=1;align=center;verticalAlign=middle;whiteSpace=wrap;rounded=0;" parent="1" vertex="1">
          <mxGeometry x="1470" y="450" width="190" height="40" as="geometry" />
        </mxCell>
        <mxCell id="46PLyfhY26RBwBr-Dz2r-131" value="&lt;h2&gt;&lt;font style=&quot;font-size: 20px;&quot;&gt;内核线程&lt;/font&gt;&lt;/h2&gt;" style="rounded=1;whiteSpace=wrap;html=1;fillColor=#cdeb8b;strokeColor=#36393d;fontStyle=1" parent="1" vertex="1">
          <mxGeometry x="620" y="1110" width="120" height="40" as="geometry" />
        </mxCell>
        <mxCell id="46PLyfhY26RBwBr-Dz2r-130" style="edgeStyle=orthogonalEdgeStyle;rounded=0;orthogonalLoop=1;jettySize=auto;html=1;fillColor=#cdeb8b;strokeColor=#36393d;strokeWidth=2;" parent="1" source="46PLyfhY26RBwBr-Dz2r-75" target="46PLyfhY26RBwBr-Dz2r-131" edge="1">
          <mxGeometry relative="1" as="geometry">
            <mxPoint x="800" y="1077" as="targetPoint" />
          </mxGeometry>
        </mxCell>
        <mxCell id="46PLyfhY26RBwBr-Dz2r-132" style="edgeStyle=orthogonalEdgeStyle;rounded=0;orthogonalLoop=1;jettySize=auto;html=1;entryX=0.744;entryY=1;entryDx=0;entryDy=0;entryPerimeter=0;fillColor=#fff2cc;strokeColor=#d6b656;curved=1;strokeWidth=2;exitX=0;exitY=0.5;exitDx=0;exitDy=0;" parent="1" source="46PLyfhY26RBwBr-Dz2r-73" target="46PLyfhY26RBwBr-Dz2r-69" edge="1">
          <mxGeometry relative="1" as="geometry">
            <Array as="points">
              <mxPoint x="960" y="990" />
              <mxPoint x="940" y="990" />
              <mxPoint x="940" y="910" />
              <mxPoint x="644" y="910" />
            </Array>
          </mxGeometry>
        </mxCell>
        <mxCell id="46PLyfhY26RBwBr-Dz2r-133" value="" style="endArrow=none;html=1;rounded=0;dashed=1;strokeWidth=2;" parent="1" edge="1">
          <mxGeometry width="50" height="50" relative="1" as="geometry">
            <mxPoint x="1370" y="742.5" as="sourcePoint" />
            <mxPoint x="1730" y="743" as="targetPoint" />
          </mxGeometry>
        </mxCell>
        <mxCell id="46PLyfhY26RBwBr-Dz2r-134" value="" style="ellipse;whiteSpace=wrap;html=1;aspect=fixed;fillColor=#d5e8d4;strokeColor=#82b366;" parent="1" vertex="1">
          <mxGeometry x="1405" y="725.5" width="35" height="35" as="geometry" />
        </mxCell>
        <mxCell id="46PLyfhY26RBwBr-Dz2r-135" value="" style="ellipse;whiteSpace=wrap;html=1;aspect=fixed;fillColor=#d5e8d4;strokeColor=#82b366;" parent="1" vertex="1">
          <mxGeometry x="1495" y="725.5" width="35" height="35" as="geometry" />
        </mxCell>
        <mxCell id="46PLyfhY26RBwBr-Dz2r-136" value="" style="ellipse;whiteSpace=wrap;html=1;aspect=fixed;fillColor=#d5e8d4;strokeColor=#82b366;" parent="1" vertex="1">
          <mxGeometry x="1585" y="725.5" width="35" height="35" as="geometry" />
        </mxCell>
        <mxCell id="46PLyfhY26RBwBr-Dz2r-137" value="" style="ellipse;whiteSpace=wrap;html=1;aspect=fixed;fillColor=#d5e8d4;strokeColor=#82b366;" parent="1" vertex="1">
          <mxGeometry x="1675" y="725.5" width="35" height="35" as="geometry" />
        </mxCell>
        <mxCell id="46PLyfhY26RBwBr-Dz2r-138" value="&lt;font color=&quot;#ff0000&quot;&gt;&lt;span style=&quot;font-size: 16px;&quot;&gt;&lt;b&gt;worker链表&lt;/b&gt;&lt;/span&gt;&lt;/font&gt;" style="text;html=1;align=center;verticalAlign=middle;whiteSpace=wrap;rounded=0;" parent="1" vertex="1">
          <mxGeometry x="1470" y="690" width="190" height="40" as="geometry" />
        </mxCell>
        <mxCell id="46PLyfhY26RBwBr-Dz2r-140" style="edgeStyle=orthogonalEdgeStyle;rounded=0;orthogonalLoop=1;jettySize=auto;html=1;entryX=0.5;entryY=1;entryDx=0;entryDy=0;fillColor=#d5e8d4;strokeColor=#82b366;strokeWidth=1;dashed=1;" parent="1" source="46PLyfhY26RBwBr-Dz2r-79" target="46PLyfhY26RBwBr-Dz2r-136" edge="1">
          <mxGeometry relative="1" as="geometry" />
        </mxCell>
        <mxCell id="46PLyfhY26RBwBr-Dz2r-141" value="&lt;font style=&quot;font-size: 16px;&quot;&gt;添加到workers链表中&lt;/font&gt;" style="edgeLabel;html=1;align=center;verticalAlign=middle;resizable=0;points=[];" parent="46PLyfhY26RBwBr-Dz2r-140" vertex="1" connectable="0">
          <mxGeometry x="-0.1419" y="1" relative="1" as="geometry">
            <mxPoint x="1" y="63" as="offset" />
          </mxGeometry>
        </mxCell>
        <mxCell id="46PLyfhY26RBwBr-Dz2r-142" value="" style="endArrow=none;html=1;rounded=0;dashed=1;strokeWidth=2;" parent="1" source="46PLyfhY26RBwBr-Dz2r-146" edge="1">
          <mxGeometry width="50" height="50" relative="1" as="geometry">
            <mxPoint x="1510" y="1030" as="sourcePoint" />
            <mxPoint x="1920" y="1030" as="targetPoint" />
          </mxGeometry>
        </mxCell>
        <mxCell id="46PLyfhY26RBwBr-Dz2r-145" value="" style="endArrow=none;html=1;rounded=0;dashed=1;strokeWidth=2;" parent="1" target="46PLyfhY26RBwBr-Dz2r-143" edge="1">
          <mxGeometry width="50" height="50" relative="1" as="geometry">
            <mxPoint x="1370" y="502.5" as="sourcePoint" />
            <mxPoint x="1910" y="503" as="targetPoint" />
          </mxGeometry>
        </mxCell>
        <mxCell id="46PLyfhY26RBwBr-Dz2r-148" style="edgeStyle=orthogonalEdgeStyle;rounded=0;orthogonalLoop=1;jettySize=auto;html=1;fillColor=#ffe6cc;strokeColor=#d79b00;strokeWidth=2;" parent="1" source="46PLyfhY26RBwBr-Dz2r-143" target="46PLyfhY26RBwBr-Dz2r-146" edge="1">
          <mxGeometry relative="1" as="geometry" />
        </mxCell>
        <mxCell id="46PLyfhY26RBwBr-Dz2r-150" value="&lt;b&gt;&lt;font style=&quot;font-size: 16px;&quot;&gt;移动到&lt;br&gt;scheduled&lt;br&gt;调度执行&lt;/font&gt;&lt;/b&gt;" style="edgeLabel;html=1;align=center;verticalAlign=middle;resizable=0;points=[];" parent="46PLyfhY26RBwBr-Dz2r-148" vertex="1" connectable="0">
          <mxGeometry x="0.0638" y="-2" relative="1" as="geometry">
            <mxPoint as="offset" />
          </mxGeometry>
        </mxCell>
        <mxCell id="46PLyfhY26RBwBr-Dz2r-143" value="" style="ellipse;whiteSpace=wrap;html=1;aspect=fixed;fillColor=#d5e8d4;strokeColor=#82b366;" parent="1" vertex="1">
          <mxGeometry x="1790" y="485.5" width="35" height="35" as="geometry" />
        </mxCell>
        <mxCell id="46PLyfhY26RBwBr-Dz2r-147" value="" style="endArrow=none;html=1;rounded=0;dashed=1;strokeWidth=2;" parent="1" target="46PLyfhY26RBwBr-Dz2r-146" edge="1">
          <mxGeometry width="50" height="50" relative="1" as="geometry">
            <mxPoint x="1510" y="1030" as="sourcePoint" />
            <mxPoint x="1920" y="1030" as="targetPoint" />
          </mxGeometry>
        </mxCell>
        <mxCell id="46PLyfhY26RBwBr-Dz2r-146" value="" style="ellipse;whiteSpace=wrap;html=1;aspect=fixed;fillColor=#d5e8d4;strokeColor=#82b366;" parent="1" vertex="1">
          <mxGeometry x="1790" y="1008.5" width="35" height="35" as="geometry" />
        </mxCell>
        <mxCell id="46PLyfhY26RBwBr-Dz2r-151" style="edgeStyle=orthogonalEdgeStyle;rounded=0;orthogonalLoop=1;jettySize=auto;html=1;entryX=1;entryY=0.5;entryDx=0;entryDy=0;curved=1;fillColor=#f5f5f5;strokeColor=#666666;dashed=1;strokeWidth=2;" parent="1" source="46PLyfhY26RBwBr-Dz2r-9" target="46PLyfhY26RBwBr-Dz2r-31" edge="1">
          <mxGeometry relative="1" as="geometry">
            <Array as="points">
              <mxPoint x="1480" y="213" />
              <mxPoint x="1480" y="-170" />
            </Array>
          </mxGeometry>
        </mxCell>
        <mxCell id="wKntAssvUF_wQL2ZQp1I-1" value="&lt;font style=&quot;font-size: 20px;&quot;&gt;🌻Make By Dakkk&lt;/font&gt;" style="html=1;shadow=0;dashed=0;shape=mxgraph.bootstrap.rrect;rSize=5;strokeColor=#1CA5B8;strokeWidth=1;fillColor=none;fontColor=#1CA5B8;whiteSpace=wrap;align=center;verticalAlign=middle;spacingLeft=0;fontStyle=1;fontSize=16;spacing=5;" vertex="1" parent="1">
          <mxGeometry x="404.15999999999997" y="880" width="111.67" height="70.39" as="geometry" />
        </mxCell>
        <mxCell id="wKntAssvUF_wQL2ZQp1I-2" value="&lt;font style=&quot;font-size: 20px;&quot;&gt;🌻Make By Dakkk&lt;/font&gt;" style="html=1;shadow=0;dashed=0;shape=mxgraph.bootstrap.rrect;rSize=5;strokeColor=#1CA5B8;strokeWidth=1;fillColor=none;fontColor=#1CA5B8;whiteSpace=wrap;align=center;verticalAlign=middle;spacingLeft=0;fontStyle=1;fontSize=16;spacing=5;" vertex="1" parent="1">
          <mxGeometry x="1546.67" y="260" width="111.67" height="70.39" as="geometry" />
        </mxCell>
        <mxCell id="wKntAssvUF_wQL2ZQp1I-3" value="&lt;font style=&quot;font-size: 20px;&quot;&gt;🌻Make By Dakkk&lt;/font&gt;" style="html=1;shadow=0;dashed=0;shape=mxgraph.bootstrap.rrect;rSize=5;strokeColor=#1CA5B8;strokeWidth=1;fillColor=none;fontColor=#1CA5B8;whiteSpace=wrap;align=center;verticalAlign=middle;spacingLeft=0;fontStyle=1;fontSize=16;spacing=5;" vertex="1" parent="1">
          <mxGeometry x="600.0000000000001" y="221.8" width="111.67" height="70.39" as="geometry" />
        </mxCell>
      </root>
    </mxGraphModel>
  </diagram>
</mxfile>
